<svg width="21" height="20" viewBox="0 0 21 20" fill="none" xmlns="http://www.w3.org/2000/svg">
<g clip-path="url(#clip0)">
<path d="M20.4445 10C20.4445 4.47715 15.9673 0 10.4445 0C4.92161 0 0.444458 4.47715 0.444458 10C0.444458 14.9912 4.10129 19.1283 8.88196 19.8785V12.8906H6.3429V10H8.88196V7.79688C8.88196 5.29063 10.3749 3.90625 12.6591 3.90625C13.7529 3.90625 14.8976 4.10156 14.8976 4.10156V6.5625H13.6366C12.3945 6.5625 12.007 7.3334 12.007 8.125V10H14.7804L14.337 12.8906H12.007V19.8785C16.7876 19.1283 20.4445 14.9912 20.4445 10Z" fill="#1877F2"/>
<path d="M14.337 12.8906L14.7804 10H12.007V8.125C12.007 7.33418 12.3945 6.5625 13.6366 6.5625H14.8976V4.10156C14.8976 4.10156 13.7532 3.90625 12.6591 3.90625C10.3749 3.90625 8.88196 5.29063 8.88196 7.79688V10H6.3429V12.8906H8.88196V19.8785C9.91733 20.0405 10.9716 20.0405 12.007 19.8785V12.8906H14.337Z" fill="white"/>
</g>
<defs>
<clipPath id="clip0">
<rect width="20" height="20" fill="white" transform="translate(0.444458)"/>
</clipPath>
</defs>
</svg>
