<svg width="21" height="20" viewBox="0 0 21 20" fill="none" xmlns="http://www.w3.org/2000/svg">
<g clip-path="url(#clip0)">
<path d="M10.4445 1.80078C13.1163 1.80078 13.4327 1.8125 14.4835 1.85937C15.4601 1.90234 15.9874 2.06641 16.339 2.20313C16.8038 2.38281 17.1398 2.60156 17.4874 2.94922C17.839 3.30078 18.0538 3.63281 18.2335 4.09766C18.3702 4.44922 18.5343 4.98047 18.5773 5.95313C18.6241 7.00781 18.6359 7.32422 18.6359 9.99219C18.6359 12.6641 18.6241 12.9805 18.5773 14.0313C18.5343 15.0078 18.3702 15.5352 18.2335 15.8867C18.0538 16.3516 17.8351 16.6875 17.4874 17.0352C17.1359 17.3867 16.8038 17.6016 16.339 17.7813C15.9874 17.918 15.4562 18.082 14.4835 18.125C13.4288 18.1719 13.1124 18.1836 10.4445 18.1836C7.77258 18.1836 7.45618 18.1719 6.4054 18.125C5.42883 18.082 4.90149 17.918 4.54993 17.7813C4.08508 17.6016 3.74915 17.3828 3.40149 17.0352C3.04993 16.6836 2.83508 16.3516 2.6554 15.8867C2.51868 15.5352 2.35461 15.0039 2.31165 14.0313C2.26477 12.9766 2.25305 12.6602 2.25305 9.99219C2.25305 7.32031 2.26477 7.00391 2.31165 5.95313C2.35461 4.97656 2.51868 4.44922 2.6554 4.09766C2.83508 3.63281 3.05383 3.29688 3.40149 2.94922C3.75305 2.59766 4.08508 2.38281 4.54993 2.20313C4.90149 2.06641 5.43274 1.90234 6.4054 1.85937C7.45618 1.8125 7.77258 1.80078 10.4445 1.80078ZM10.4445 0C7.72962 0 7.38977 0.0117187 6.32336 0.0585938C5.26086 0.105469 4.5304 0.277344 3.89758 0.523437C3.23743 0.78125 2.67883 1.12109 2.12415 1.67969C1.56555 2.23438 1.22571 2.79297 0.967896 3.44922C0.721802 4.08594 0.549927 4.8125 0.503052 5.875C0.456177 6.94531 0.444458 7.28516 0.444458 10C0.444458 12.7148 0.456177 13.0547 0.503052 14.1211C0.549927 15.1836 0.721802 15.9141 0.967896 16.5469C1.22571 17.207 1.56555 17.7656 2.12415 18.3203C2.67883 18.875 3.23743 19.2188 3.89368 19.4727C4.5304 19.7188 5.25696 19.8906 6.31946 19.9375C7.38586 19.9844 7.72571 19.9961 10.4406 19.9961C13.1554 19.9961 13.4952 19.9844 14.5616 19.9375C15.6241 19.8906 16.3546 19.7188 16.9874 19.4727C17.6437 19.2188 18.2023 18.875 18.757 18.3203C19.3116 17.7656 19.6554 17.207 19.9093 16.5508C20.1554 15.9141 20.3273 15.1875 20.3741 14.125C20.421 13.0586 20.4327 12.7188 20.4327 10.0039C20.4327 7.28906 20.421 6.94922 20.3741 5.88281C20.3273 4.82031 20.1554 4.08984 19.9093 3.45703C19.6632 2.79297 19.3234 2.23438 18.7648 1.67969C18.2101 1.125 17.6515 0.78125 16.9952 0.527344C16.3585 0.28125 15.632 0.109375 14.5695 0.0625C13.4991 0.0117188 13.1593 0 10.4445 0Z" fill="white"/>
<path d="M10.4445 4.86328C7.60852 4.86328 5.30774 7.16406 5.30774 10C5.30774 12.8359 7.60852 15.1367 10.4445 15.1367C13.2804 15.1367 15.5812 12.8359 15.5812 10C15.5812 7.16406 13.2804 4.86328 10.4445 4.86328ZM10.4445 13.332C8.60461 13.332 7.11243 11.8398 7.11243 10C7.11243 8.16016 8.60461 6.66797 10.4445 6.66797C12.2843 6.66797 13.7765 8.16016 13.7765 10C13.7765 11.8398 12.2843 13.332 10.4445 13.332Z" fill="white"/>
<path d="M16.9835 4.66013C16.9835 5.32419 16.4445 5.85935 15.7843 5.85935C15.1202 5.85935 14.5851 5.32028 14.5851 4.66013C14.5851 3.99606 15.1241 3.46091 15.7843 3.46091C16.4445 3.46091 16.9835 3.99997 16.9835 4.66013Z" fill="white"/>
</g>
<defs>
<clipPath id="clip0">
<rect width="20" height="20" fill="white" transform="translate(0.444458)"/>
</clipPath>
</defs>
</svg>
