<svg width="21" height="20" viewBox="0 0 21 20" fill="none" xmlns="http://www.w3.org/2000/svg">
<g clip-path="url(#clip0)">
<path d="M10.4445 20C15.9673 20 20.4445 15.5228 20.4445 10C20.4445 4.47715 15.9673 0 10.4445 0C4.92161 0 0.444458 4.47715 0.444458 10C0.444458 15.5228 4.92161 20 10.4445 20Z" fill="url(#paint0_linear)"/>
<path fill-rule="evenodd" clip-rule="evenodd" d="M4.97099 9.89443C7.8862 8.62432 9.83012 7.78699 10.8028 7.38243C13.5799 6.22734 14.1569 6.02669 14.5331 6.02006C14.6158 6.0186 14.8007 6.0391 14.9206 6.13632C15.0217 6.21841 15.0496 6.3293 15.0629 6.40714C15.0762 6.48497 15.0928 6.66226 15.0796 6.8008C14.9291 8.38204 14.2779 12.2193 13.9466 13.9903C13.8065 14.7397 13.5305 14.9909 13.2632 15.0155C12.6825 15.069 12.2416 14.6317 11.6791 14.263C10.799 13.6861 10.3017 13.327 9.44743 12.764C8.46012 12.1134 9.10015 11.7558 9.66282 11.1714C9.81007 11.0184 12.3687 8.69112 12.4183 8.47999C12.4244 8.45359 12.4302 8.35517 12.3717 8.30319C12.3133 8.25122 12.227 8.269 12.1647 8.28313C12.0764 8.30317 10.6704 9.23249 7.94662 11.0711C7.54752 11.3452 7.18604 11.4787 6.86216 11.4717C6.50511 11.464 5.81828 11.2698 5.3077 11.1038C4.68145 10.9003 4.18372 10.7926 4.22706 10.4469C4.24963 10.2668 4.49761 10.0827 4.97099 9.89443Z" fill="white"/>
</g>
<defs>
<linearGradient id="paint0_linear" x1="10.4445" y1="0" x2="10.4445" y2="19.8517" gradientUnits="userSpaceOnUse">
<stop stop-color="#2AABEE"/>
<stop offset="1" stop-color="#229ED9"/>
</linearGradient>
<clipPath id="clip0">
<rect width="20" height="20" fill="white" transform="translate(0.444458)"/>
</clipPath>
</defs>
</svg>
