<svg width="21" height="20" viewBox="0 0 21 20" fill="none" xmlns="http://www.w3.org/2000/svg">
<g clip-path="url(#clip0)">
<path d="M6.73626 18.125C14.2816 18.125 18.4097 11.8723 18.4097 6.45158C18.4097 6.2758 18.4058 6.09611 18.398 5.92033C19.201 5.33958 19.894 4.62024 20.4445 3.79611C19.6966 4.12886 18.9025 4.34618 18.0894 4.44064C18.9455 3.92745 19.5866 3.12126 19.8937 2.1715C19.0883 2.64883 18.2074 2.98554 17.289 3.16721C16.6702 2.50966 15.8519 2.07429 14.9609 1.92841C14.0698 1.78252 13.1555 1.93424 12.3592 2.36011C11.563 2.78598 10.9293 3.46229 10.556 4.28446C10.1827 5.10663 10.0906 6.02888 10.2941 6.90861C8.6632 6.82677 7.06774 6.40312 5.61111 5.66511C4.15448 4.92711 2.8692 3.89123 1.8386 2.62463C1.31479 3.52773 1.15451 4.5964 1.39032 5.61344C1.62613 6.63048 2.24034 7.51957 3.10813 8.10002C2.45665 8.07933 1.81944 7.90393 1.24915 7.5883V7.63908C1.24856 8.58682 1.57621 9.50552 2.17638 10.239C2.77656 10.9725 3.61223 11.4755 4.54133 11.6625C3.93784 11.8276 3.30444 11.8517 2.69016 11.7328C2.95234 12.5479 3.46244 13.2608 4.14927 13.772C4.8361 14.2832 5.66539 14.5672 6.52141 14.5844C5.06814 15.726 3.27294 16.3451 1.42493 16.3422C1.0972 16.3417 0.769791 16.3216 0.444458 16.282C2.32184 17.4865 4.50573 18.1262 6.73626 18.125Z" fill="#1DA1F2"/>
</g>
<defs>
<clipPath id="clip0">
<rect width="20" height="20" fill="white" transform="translate(0.444458)"/>
</clipPath>
</defs>
</svg>
